<svg width="62" height="62" viewBox="0 0 62 62" fill="none" xmlns="http://www.w3.org/2000/svg">
<rect width="62" height="62" rx="10" fill="#B40001" fill-opacity="0.1"/>
<path opacity="0.15" d="M42.9992 36.9689V40.5819C43.0048 41.9631 41.7629 43.1164 40.3685 42.9906C28.3333 43 19 33.58 19.0094 21.6256C18.8838 20.2386 20.0314 19.0014 21.4108 19.0001H25.031C25.6166 18.9944 26.1844 19.2013 26.6284 19.5825C27.8908 20.666 28.7028 24.3437 28.3904 25.8057C28.1465 26.9472 26.9959 27.7457 26.2136 28.5265C27.9314 31.5416 30.4329 34.0381 33.454 35.7525C34.2362 34.9718 35.0364 33.8234 36.1801 33.58C37.6473 33.2677 41.3486 34.0809 42.4278 35.3521C42.8105 35.8028 43.0139 36.3783 42.9992 36.9689Z" fill="#FF0000"/>
<path d="M34.3333 23.6667C35.3162 23.8584 36.2919 24.2919 37 25C37.7081 25.7081 38.1416 26.6838 38.3333 27.6667M35 19C37.042 19.2269 38.8796 20.2148 40.3333 21.6667C41.7871 23.1186 42.7706 24.9582 43 27M42.9992 36.9689V40.5819C43.0048 41.963 41.7629 43.1164 40.3685 42.9906C28.3333 43 19 33.58 19.0094 21.6256C18.8838 20.2386 20.0314 19.0014 21.4108 19.0001H25.031C25.6166 18.9944 26.1844 19.2013 26.6284 19.5825C27.8908 20.666 28.7028 24.3437 28.3904 25.8057C28.1465 26.9472 26.9959 27.7457 26.2136 28.5265C27.9314 31.5416 30.4329 34.0381 33.454 35.7525C34.2362 34.9718 35.0364 33.8234 36.1801 33.58C37.6473 33.2677 41.3486 34.0809 42.4278 35.3521C42.8105 35.8028 43.0139 36.3783 42.9992 36.9689Z" stroke="#FF0000" stroke-width="2" stroke-linecap="round" stroke-linejoin="round"/>
</svg>
