<svg width="62" height="62" viewBox="0 0 62 62" fill="none" xmlns="http://www.w3.org/2000/svg">
<rect width="62" height="62" rx="10" fill="#B40001" fill-opacity="0.1"/>
<path opacity="0.15" fill-rule="evenodd" clip-rule="evenodd" d="M25.666 28.3336V41.667H38.1465C39.4177 41.667 40.5121 40.7697 40.7614 39.5233L42.3614 31.5233C42.6914 29.8732 41.4293 28.3336 39.7465 28.3336H33.666L36.9004 23.4821C37.9233 21.9478 37.1173 19.8631 35.3283 19.4159L35.2649 19.4C34.285 19.155 33.2508 19.4847 32.5935 20.2516L25.666 28.3336Z" fill="#FF0000"/>
<path d="M25.6673 28.3337V41.667M25.6673 28.3337L20.334 28.3336V41.667L25.6673 41.667M25.6673 28.3337L32.5948 20.2516C33.2521 19.4847 34.2863 19.155 35.2662 19.4L35.3296 19.4159C37.1186 19.8631 37.9246 21.9478 36.9017 23.4821L33.6673 28.3336H39.7478C41.4306 28.3336 42.6927 29.8732 42.3627 31.5233L40.7627 39.5233C40.5134 40.7697 39.419 41.667 38.1478 41.667L25.6673 41.667" stroke="#FF0000" stroke-width="2.0625" stroke-linecap="round" stroke-linejoin="round"/>
</svg>
